<svg xmlns="http://www.w3.org/2000/svg" viewBox="0 0 512 512" role="img" aria-label="نشان شرکت کشت و صنعت زمرد ملل">
<defs>
 <linearGradient id="g" x1="0" y1="0" x2="1" y2="1"><stop stop-color="#fffdf8"/><stop offset=".55" stop-color="#efe4c8"/><stop offset="1" stop-color="#d9c083"/></linearGradient>
 <linearGradient id="gold" x1="0" y1="0" x2="1" y2="1"><stop stop-color="#f7df8a"/><stop offset=".5" stop-color="#c9a34e"/><stop offset="1" stop-color="#fff0a9"/></linearGradient>
</defs>
<circle cx="256" cy="256" r="238" fill="url(#g)" stroke="#c9a34e" stroke-width="12"/>
<circle cx="256" cy="256" r="207" fill="none" stroke="#e0c47b" stroke-width="3"/>
<path d="M119 175l-18-30 34-14 4-35 37 5 20-29 29 22 31-18 19 32 37-3 4 36 34 12-16 33-23-12-20-28-42-12-48 16-38 35z" fill="none" stroke="#b89449" stroke-width="10" stroke-linejoin="round"/>
<path d="M116 337l-26-33 32-23 5-35 38 3 20-29 31 18 32-15 17 32 37 1 1 37 33 17-22 31-27-13-23-28-43-11-48 19-38 29z" fill="none" stroke="#b89449" stroke-width="10" stroke-linejoin="round"/>
<path d="M183 260c40-34 82-55 132-65-17 32-48 59-83 71-20 7-36 5-49-6z" fill="#59652f" stroke="#c9a34e" stroke-width="7"/>
<path d="M184 261c30 11 61 10 91-4" fill="none" stroke="#f6e3a0" stroke-width="7" stroke-linecap="round"/>
<path d="M282 420c29-71 59-127 105-184" fill="none" stroke="url(#gold)" stroke-width="13" stroke-linecap="round"/>
<g fill="url(#gold)" stroke="#a97f2f" stroke-width="4">
<path d="M342 254c-9-31 5-57 31-68 9 27-3 54-31 68z"/>
<path d="M359 222c-2-34 16-60 44-67 3 29-15 55-44 67z"/>
<path d="M374 190c6-34 28-55 57-57-4 29-26 50-57 57z"/>
<path d="M331 289c-5-30 11-54 38-62 6 27-8 52-38 62z"/>
<path d="M351 321c-2-29 15-51 41-58 4 26-12 49-41 58z"/>
<path d="M312 324c-12-28-2-53 22-67 12 24 4 51-22 67z"/>
</g>
<path d="M281 420c55-11 105-6 146 16" fill="none" stroke="url(#gold)" stroke-width="12" stroke-linecap="round"/>
</svg>